#!OML:ASF F:\VICON\USERDATA\INSTALL\rory3\rory3.ASF
:FULLY-SPECIFIED
:DEGREES
79
root 0.765671 17.9093 -3.33671 -2.99514 -0.355829 3.00283
lowerback 10.8453 -0.645868 -3.36703
upperback 0.45878 -1.2239 0.873961
thorax -5.51762 -0.505639 3.00412
lowerneck -16.4819 -2.69418 -1.61748
upperneck 21.7842 -3.15588 -0.735437
head 9.63085 -1.6883 -0.397626
rclavicle 3.926e-015 5.96354e-015
rhumerus -32.2076 -23.8208 -76.0121
rradius 24.1958
rwrist 5.76627
rhand -17.7985 23.2613
rfingers 7.12502
rthumb 8.46484 -6.54902
lclavicle 3.926e-015 5.96354e-015
lhumerus -23.4365 -0.949884 80.6351
lradius 29.5484
lwrist 8.29626
lhand -27.5535 25.8173
lfingers 7.12502
lthumb -0.954637 55.7949
rfemur -31.1458 0.610083 17.8235
rtibia 37.8278
rfoot -9.11949 -11.4808
rtoes 1.77628
lfemur 5.8375 -2.88911 -28.7333
ltibia 19.2912
lfoot -17.5301 -0.544691
ltoes -0.246276
80
root 0.749183 17.8959 -3.15804 -2.73958 -0.32406 3.06929
lowerback 10.6478 -0.707958 -3.47199
upperback 0.371077 -1.31467 0.8579
thorax -5.49049 -0.547238 3.05675
lowerneck -16.382 -2.68532 -1.59766
upperneck 21.6734 -3.16466 -0.679708
head 9.57378 -1.68455 -0.379959
rclavicle -1.21756e-015 -9.14409e-015
rhumerus -32.5185 -23.9668 -75.8584
rradius 24.1486
rwrist 5.65412
rhand -18.7323 21.8741
rfingers 7.12502
rthumb 7.56355 -7.97065
lclavicle -1.21756e-015 -9.14409e-015
lhumerus -23.1575 -1.04361 80.4563
lradius 29.6993
lwrist 8.32625
lhand -28.4799 23.5022
lfingers 7.12502
lthumb -1.84943 53.4739
rfemur -31.0902 1.32722 17.5313
rtibia 34.5412
rfoot -8.84529 -12.0833
rtoes 1.58765
lfemur 6.65012 -2.72997 -28.7517
ltibia 18.4245
lfoot -17.5613 -0.754434
ltoes -0.182584
81
root 0.728099 17.8866 -2.97694 -2.42347 -0.076365 3.1992
lowerback 10.3609 -0.850018 -3.7346
upperback 0.265687 -1.52542 0.873818
thorax -5.41723 -0.644315 3.24695
lowerneck -16.1894 -2.67508 -1.68055
upperneck 21.4934 -3.15221 -0.596384
head 9.47776 -1.67648 -0.330915
rclavicle 7.95139e-015 -1.07344e-014
rhumerus -32.8138 -23.8692 -75.7531
rradius 24.1793
rwrist 5.39402
rhand -19.132 20.2038
rfingers 7.12502
rthumb 7.17777 -9.65444
lclavicle 7.95139e-015 -1.07344e-014
lhumerus -22.7861 -0.866412 80.2903
lradius 29.6622
lwrist 8.16793
lhand -29.3173 22.331
lfingers 7.12502
lthumb -2.65819 52.2942
rfemur -31.0043 2.22836 17.0323
rtibia 31.2841
rfoot -8.85335 -13.0402
rtoes -0.97257
lfemur 7.40705 -2.60713 -28.7789
ltibia 17.5591
lfoot -17.5085 -1.0058
ltoes 0.183089
82
root 0.70682 17.8845 -2.79608 -2.20988 0.228399 3.14579
lowerback 10.1539 -1.01306 -3.87368
upperback 0.187635 -1.74404 1.01618
thorax -5.35667 -0.747089 3.5017
lowerneck -15.9673 -2.62613 -1.90625
upperneck 21.3786 -3.05878 -0.47263
head 9.40238 -1.63787 -0.234433
rclavicle -1.55301e-014 -2.38542e-015
rhumerus -33.0389 -23.6549 -75.6285
rradius 24.2933
rwrist 5.12151
rhand -19.1517 18.7188
rfingers 7.12502
rthumb 7.1587 -11.1401
lclavicle -1.55301e-014 -2.38542e-015
lhumerus -22.6197 -0.764863 80.2516
lradius 30.0027
lwrist 8.29754
lhand -30.0093 22.0948
lfingers 7.12502
lthumb -3.32643 52.0485
rfemur -30.7106 3.43749 16.5597
rtibia 28.0628
rfoot -9.37313 -14.1733
rtoes -1.07067
lfemur 8.2833 -2.48075 -28.5785
ltibia 16.7116
lfoot -17.3411 -1.31087
ltoes 0.0852917
83
root 0.68794 17.8796 -2.61679 -2.11948 0.588301 3.21096
lowerback 10.2633 -1.15069 -4.09588
upperback 0.116228 -1.95437 1.09637
thorax -5.46518 -0.839732 3.74671
lowerneck -16.228 -2.55861 -1.93601
upperneck 21.5858 -2.94967 -0.478264
head 9.52315 -1.59003 -0.223244
rclavicle 5.29264e-015 -7.95139e-015
rhumerus -33.1477 -23.8345 -75.4485
rradius 24.1785
rwrist 4.90128
rhand -18.7449 19.5064
rfingers 7.12502
rthumb 7.55142 -10.3388
lclavicle 5.29264e-015 -7.95139e-015
lhumerus -22.5451 -0.791076 80.2385
lradius 30.4489
lwrist 8.23512
lhand -30.467 21.6658
lfingers 7.12502
lthumb -3.76844 51.6123
rfemur -30.2624 4.43595 15.9554
rtibia 24.9979
rfoot -10.5485 -15.156
rtoes 0.508692
lfemur 9.26455 -2.32573 -28.5088
ltibia 15.8206
lfoot -16.9591 -1.66756
ltoes -0.572305
84
root 0.67027 17.8669 -2.4335 -2.09304 0.8226 3.38498
lowerback 10.4076 -1.21908 -4.35926
upperback 0.131825 -2.08269 1.09563
thorax -5.50897 -0.894867 3.91805
lowerneck -16.6596 -2.54949 -1.79844
upperneck 21.6902 -2.93194 -0.608801
head 9.63548 -1.58465 -0.296167
rclavicle -1.72943e-014 -1.59028e-014
rhumerus -33.2939 -25.129 -74.622
rradius 23.1913
rwrist 5.82817
rhand -17.7809 23.3417
rfingers 7.12502
rthumb 8.48176 -6.46799
lclavicle -1.72943e-014 -1.59028e-014
lhumerus -22.2929 -0.810965 80.1724
lradius 30.7135
lwrist 8.03708
lhand -30.4607 20.7424
lfingers 7.12502
lthumb -3.76236 50.689
rfemur -29.7309 5.39412 15.2587
rtibia 22.1177
rfoot -11.3998 -15.7766
rtoes 0.222703
lfemur 10.3164 -2.21072 -28.6182
ltibia 15.009
lfoot -16.828 -1.98197
ltoes -1.05313
85
root 0.64793 17.8483 -2.25357 -2.06483 0.984107 3.60318
lowerback 10.4019 -1.26255 -4.66176
upperback 0.230837 -2.17851 1.0259
thorax -5.38382 -0.940647 4.02644
lowerneck -16.9091 -2.62903 -1.70062
upperneck 21.627 -3.06164 -0.61785
head 9.6583 -1.63706 -0.335647
rclavicle 2.45996e-014 1.31198e-014
rhumerus -33.2073 -25.46 -74.6107
rradius 22.953
rwrist 5.67273
rhand -18.0187 23.0796
rfingers 7.12502
rthumb 8.25227 -6.73923
lclavicle 2.45996e-014 1.31198e-014
lhumerus -21.7973 -0.947267 80.0507
lradius 30.7795
lwrist 7.99059
lhand -30.3146 14.6532
lfingers 7.12502
lthumb -3.62131 44.6022
rfemur -29.3246 6.49786 14.4965
rtibia 19.5636
rfoot -12.1859 -16.3683
rtoes 0.7104
lfemur 11.2345 -2.12526 -28.7581
ltibia 14.441
lfoot -16.888 -2.38718
ltoes -1.41769
86
root 0.624095 17.8337 -2.07658 -2.0043 1.3097 3.52978
lowerback 10.4504 -1.40339 -4.66727
upperback 0.19275 -2.36682 1.07476
thorax -5.42975 -1.0305 4.11056
lowerneck -16.8432 -2.64234 -1.71314
upperneck 21.6286 -3.0728 -0.641307
head 9.64648 -1.64624 -0.34222
rclavicle -2.80783e-015 5.56597e-015
rhumerus -33.4076 -25.9647 -74.3032
rradius 22.724
rwrist 5.80956
rhand -18.4122 22.686
rfingers 7.12502
rthumb 7.87246 -7.14739
lclavicle -2.80783e-015 5.56597e-015
lhumerus -21.4978 -1.24543 80.0242
lradius 30.9646
lwrist 8.10411
lhand -29.3513 3.84275
lfingers 7.12502
lthumb -2.69095 33.8055
rfemur -28.9546 7.62612 14.0114
rtibia 17.3744
rfoot -12.4462 -17.1331
rtoes 2.08434
lfemur 11.9204 -2.34994 -28.5924
ltibia 14.1714
lfoot -17.1334 -2.74214
ltoes -2.66292
87
root 0.603616 17.8201 -1.8981 -1.88674 1.47742 3.35645
lowerback 10.4731 -1.48626 -4.55096
upperback 0.119579 -2.46081 1.15758
thorax -5.51111 -1.07487 4.14849
lowerneck -16.7008 -2.62352 -1.70656
upperneck 21.4768 -3.0494 -0.648429
head 9.56618 -1.63579 -0.338922
rclavicle 1.84373e-014 3.97569e-015
rhumerus -33.8148 -26.453 -73.7977
rradius 22.5053
rwrist 5.94126
rhand -18.2187 23.1453
rfingers 7.12502
rthumb 8.05929 -6.68102
lclavicle 1.84373e-014 3.97569e-015
lhumerus -21.4345 -1.40341 80.0827
lradius 31.5189
lwrist 7.97113
lhand -30.9471 14.7768
lfingers 7.12502
lthumb -4.23203 44.7145
rfemur -28.7545 8.7786 13.6936
rtibia 15.7294
rfoot -13.2032 -17.9538
rtoes 1.41773
lfemur 12.4225 -2.62412 -28.3564
ltibia 14.1326
lfoot -17.2078 -2.90488
ltoes -2.82907
88
root 0.581796 17.7979 -1.71409 -1.88037 1.57101 3.40356
lowerback 10.4966 -1.53811 -4.69561
upperback 0.149723 -2.54678 1.17524
thorax -5.47673 -1.11483 4.2612
lowerneck -16.7013 -2.60594 -1.78191
upperneck 21.2938 -3.04259 -0.487361
head 9.50602 -1.62001 -0.268016
rclavicle 5.26779e-015 2.06736e-014
rhumerus -34.1311 -27.3695 -73.1126
rradius 22.1056
rwrist 7.03967
rhand -17.9713 23.4222
rfingers 7.12502
rthumb 8.298 -6.39487
lclavicle 5.26779e-015 2.06736e-014
lhumerus -21.29 -1.54821 80.0991
lradius 31.9191
lwrist 8.08075
lhand -31.3984 20.1335
lfingers 7.12502
lthumb -4.66782 50.062
rfemur -28.5968 9.56687 13.3429
rtibia 14.8312
rfoot -14.2379 -18.2507
rtoes 0.84504
lfemur 13.066 -2.82574 -28.3794
ltibia 14.2473
lfoot -17.0933 -2.47038
ltoes -3.26658
89
root 0.562217 17.7775 -1.52671 -2.00043 1.84175 3.5562
lowerback 10.6737 -1.59047 -4.82948
upperback 0.184184 -2.64392 1.11546
thorax -5.52657 -1.15874 4.29459
lowerneck -16.8386 -2.67323 -1.81485
upperneck 21.4111 -3.13136 -0.460067
head 9.57439 -1.66058 -0.267996
rclavicle -1.08089e-014 -2.0276e-014
rhumerus -34.5847 -28.343 -72.3922
rradius 21.8895
rwrist 8.15668
rhand -18.0565 22.6856
rfingers 7.12502
rthumb 8.21581 -7.13465
lclavicle -1.08089e-014 -2.0276e-014
lhumerus -21.0256 -1.71118 80.1204
lradius 31.9414
lwrist 8.35043
lhand -31.5543 19.1026
lfingers 7.12502
lthumb -4.81834 49.0278
rfemur -28.3533 9.32133 13.3152
rtibia 14.724
rfoot -14.231 -17.7381
rtoes 1.18113
lfemur 13.8756 -3.07933 -28.5098
ltibia 14.4884
lfoot -17.2725 -2.15799
ltoes -5.48422
90
root 0.540029 17.7685 -1.34093 -2.10616 2.12921 3.44161
lowerback 10.811 -1.67436 -4.77271
upperback 0.235261 -2.75067 1.17157
thorax -5.53797 -1.21265 4.34196
lowerneck -16.7988 -2.74234 -1.73865
upperneck 21.3608 -3.20849 -0.628624
head 9.54532 -1.70961 -0.347869
rclavicle -2.7159e-014 7.15625e-015
rhumerus -34.8861 -28.1858 -72.3496
rradius 22.1069
rwrist 6.98179
rhand -17.9128 22.5929
rfingers 7.12502
rthumb 8.35446 -7.22193
lclavicle -2.7159e-014 7.15625e-015
lhumerus -20.7412 -1.93198 80.175
lradius 31.9221
lwrist 8.54384
lhand -31.7875 18.1882
lfingers 7.12502
lthumb -5.04359 48.1082
rfemur -28.2651 8.28446 13.995
rtibia 15.4151
rfoot -13.5292 -16.4457
rtoes 0.83771
lfemur 14.5135 -3.43446 -28.3219
ltibia 14.7609
lfoot -17.2625 -2.38517
ltoes -6.79264
91
root 0.5221 17.7546 -1.15035 -2.08554 2.19979 3.19154
lowerback 10.6958 -1.73605 -4.56689
upperback 0.295207 -2.79416 1.28523
thorax -5.409 -1.24364 4.34433
lowerneck -16.7236 -2.78101 -1.76296
upperneck 21.2274 -3.23736 -0.70978
head 9.48379 -1.73431 -0.372974
rclavicle 1.42131e-014 -1.19271e-014
rhumerus -35.0102 -28.3491 -72.06
rradius 21.9115
rwrist 5.92275
rhand -17.0059 23.5449
rfingers 7.12502
rthumb 9.22967 -6.23307
lclavicle 1.42131e-014 -1.19271e-014
lhumerus -20.5825 -1.89511 80.197
lradius 32.231
lwrist 8.53071
lhand -31.664 19.056
lfingers 7.12502
lthumb -4.92426 48.9788
rfemur -28.5159 7.05807 14.9679
rtibia 16.7143
rfoot -12.623 -14.589
rtoes 0.321107
lfemur 14.9049 -3.68649 -28.0207
ltibia 15.0265
lfoot -16.9462 -2.65381
ltoes -7.56212
92
root 0.500965 17.7364 -0.952927 -2.24802 2.10904 3.13948
lowerback 10.8045 -1.6943 -4.5847
upperback 0.429705 -2.74156 1.3118
thorax -5.33128 -1.22203 4.376
lowerneck -16.9883 -2.82164 -1.72359
upperneck 21.2197 -3.28901 -0.74803
head 9.52882 -1.75881 -0.40362
rclavicle 3.32467e-014 -1.11319e-014
rhumerus -35.1981 -30.2767 -70.895
rradius 20.9121
rwrist 7.73116
rhand -16.5721 24.7267
rfingers 7.12502
rthumb 9.64818 -5.03232
lclavicle 3.32467e-014 -1.11319e-014
lhumerus -20.262 -1.76942 80.2339
lradius 32.3487
lwrist 8.29238
lhand -31.4882 20.8305
lfingers 7.12502
lthumb -4.75451 50.7572
rfemur -28.5587 5.90461 15.8017
rtibia 18.1607
rfoot -11.4035 -12.7451
rtoes 0.959053
lfemur 15.5928 -3.91551 -27.9917
ltibia 15.4192
lfoot -16.7378 -2.61684
ltoes -7.99069
